<?xml version="1.0" encoding="iso-8859-1"?>
<!-- Generator: Adobe Illustrator 19.0.0, SVG Export Plug-In . SVG Version: 6.00 Build 0)  -->
<svg version="1.1" id="Layer_1" xmlns="http://www.w3.org/2000/svg" xmlns:xlink="http://www.w3.org/1999/xlink" x="0px" y="0px"
	 viewBox="0 0 467.63 467.63" style="enable-background:new 0 0 467.63 467.63;" xml:space="preserve">
<g transform="translate(0 -540.36)">
	<g>
		<g>
			<circle cx="193.535" cy="848.723" r="7.5"/>
			<circle cx="160.335" cy="832.123" r="7.5"/>
			<circle cx="160.335" cy="865.323" r="7.5"/>
			<circle cx="226.635" cy="832.123" r="7.5"/>
			<circle cx="226.635" cy="865.323" r="7.5"/>
			<circle cx="193.135" cy="881.923" r="7.5"/>
			<circle cx="193.135" cy="815.423" r="7.5"/>
			<path d="M416.23,551.125L416.23,551.125l-127.1,176c-7.5,10.6-21.1,14.5-32.4,9.5l-193.9-75.5l-0.7-0.1c-3.6-0.7-5.3-0.8-8.5-0.8
				c-16.2,0-31,9.5-37.6,24.2l-0.7,1.4l-0.8,1.6c-16.1,38.6-18.7,77.7-8.4,126.7c1.2,5.8,5.2,11.2,11.2,15.3
				c11.7,8,20.8,11.9,33.6,14.5l68.3,12.3c2.4,24.5,16.3,45.2,36.6,56.7c6.3,10.4,13.7,24.7,15.7,28.6l8.9,55.7h26.2l8.9-55.7
				c2-3.9,9.4-18.2,15.7-28.6c22.3-12.7,36.9-36.4,36.9-64.1c0-3.2-0.2-6.3-0.6-9.4l26.3-7.7l0.4-0.2c18.2-7.9,28.7-22.1,28.7-38.8
				v-1.8c8.1-0.3,16.8-5.9,20.6-13.3l124.1-226.5H416.23z M201.53,935.725L201.53,935.725l-0.5,1l-7.2,45.4h-0.6l-7.2-45.3l-0.5-1
				c-0.3-0.5-3.5-6.9-7.7-14.6c5.1,1,10.3,1.6,15.7,1.6c5.4,0,10.7-0.6,15.7-1.6C205.03,928.825,201.83,935.225,201.53,935.725z
				 M252.73,856.425c-2,14.8-9.3,27.9-20.1,37.1v0c-1.4-1.5-3.3-2.5-5.6-2.5c-4.1,0-7.5,3.4-7.5,7.5c0,1.1,0.2,2.1,0.7,3.1
				c-8,3.9-17,6.1-26.7,6.1c-9.4,0-18.2-2.1-26.1-5.7c0.5-1,0.8-2.2,0.8-3.4c0-4.1-3.4-7.5-7.5-7.5c-2.4,0-4.5,1.1-5.9,2.9
				c-11.1-9.2-18.6-22.5-20.5-37.7c3.9-0.2,7-3.5,7-7.5s-3.1-7.2-7-7.5c1.8-15,9.2-28.1,20-37.3c1.3,2.1,3.7,3.6,6.4,3.6
				c4.1,0,7.5-3.4,7.5-7.5c0-1.6-0.5-3-1.3-4.3c8-3.8,17-6,26.6-6c9.9,0,19.1,2.3,27.2,6.3c-0.7,1.2-1.1,2.5-1.1,4
				c0,4.1,3.4,7.5,7.5,7.5c2.5,0,4.7-1.2,6.1-3.1c10.6,9.2,17.7,22.1,19.5,36.9c-3.9,0.2-7,3.5-7,7.5S248.83,856.125,252.73,856.425
				z M330.33,770.425l-0.1,0.2c-1.5,2.9-5.6,5.2-8.1,5.2h-14.2v16.8c0,13.4-10.4,20.9-19.2,24.8l-24.5,7.2
				c-9.9-29.3-37.4-49.9-70.7-49.9c-39.2,0-70.4,28.5-74.2,66.2l-65.6-11.8c-11.6-2.6-18.1-5.3-28-12.1c-2.7-1.8-4.6-4.1-4.9-6
				c-9.6-45.7-7.3-81.8,7.6-117.5l0.9-2l0.4-0.9c4.2-9.4,13.7-15.5,24-15.5c2,0,2.8,0,4.9,0.4l192.2,74.8
				c17.8,7.9,39.1,1.8,50.6-14.5l122.5-169.7h18.4L330.33,770.425z"/>
		</g>
	</g>
</g>
<g>
</g>
<g>
</g>
<g>
</g>
<g>
</g>
<g>
</g>
<g>
</g>
<g>
</g>
<g>
</g>
<g>
</g>
<g>
</g>
<g>
</g>
<g>
</g>
<g>
</g>
<g>
</g>
<g>
</g>
</svg>
