<?xml version='1.0' encoding='iso-8859-1'?>
<svg version="1.1" xmlns="http://www.w3.org/2000/svg" viewBox="0 0 489.6 489.6" xmlns:xlink="http://www.w3.org/1999/xlink" enable-background="new 0 0 489.6 489.6">
  <g>
    <g>
      <path d="m437.1,101.9v-29.1h-20.8v29.1h-37.9c-15.5-58.7-68.9-101.9-132.6-101.9s-117,43.2-132.6,101.9h-39.9v-29.1h-20.8v29.1h-52v387.7h488.6v-387.7h-52zm-192.3-80.1c64.4,3.55271e-15 116.4,52 116.4,116.4 0,56.1-88.4,198.5-116.4,243.2-39.5-61.3-116.4-192.3-116.4-243.2-2.84217e-14-64.4 52-116.4 116.4-116.4zm-223.5,100.9h31.2v42.6h20.8v-42.6h36.1c-0.5,4.8-0.8,9.6-0.8,14.6 0,23.6 12.9,59.1 30.4,96.7h-117.7v-111.3zm447,346.1h-447v-214.1h127.8c36.2,72.4 95.7,164.2 95.7,164.2s61.3-91.9 97.5-164.2h126v214.1zm0-234.9h-115.9c17.7-37.7 30.6-73.4 30.6-96.7 0-4.9-0.3-9.8-0.8-14.6h34.1v0.1 42.6h20.8v-42.6h31.2v111.2z"/>
      <path d="m326.9,143.4c0-45.7-36.4-82.1-82.1-82.1s-82.1,36.4-82.1,82.1 37.4,82.1 82.1,82.1 82.1-36.3 82.1-82.1zm-143.4,1.1c0-34.3 28.1-61.3 61.3-61.3s61.3,27 61.3,61.3-27,61.3-61.3,61.3-61.3-27-61.3-61.3z"/>
      <rect width="48.9" x="362.3" y="345.1" height="20.8"/>
      <rect width="48.9" x="362.3" y="412.7" height="20.8"/>
      <rect width="48.9" x="78.5" y="345.1" height="20.8"/>
      <rect width="48.9" x="78.5" y="412.7" height="20.8"/>
    </g>
  </g>
</svg>
